HIERARCHY
ROOT Hips
{
	OFFSET 0.000000 0.000000 0.000000
	CHANNELS 6 Xposition Yposition Zposition Xrotation Yrotation Zrotation
	JOINT Chest
	{
		OFFSET 0.000000 0.009282 11.569106
		CHANNELS 3 Xrotation Yrotation Zrotation
		JOINT Chest2
		{
			OFFSET 0.000000 -0.016863 9.269641
			CHANNELS 3 Xrotation Yrotation Zrotation
			JOINT Chest3
			{
				OFFSET 0.000000 0.000000 8.374491
				CHANNELS 3 Xrotation Yrotation Zrotation
				JOINT Chest4
				{
					OFFSET 0.000000 0.000000 8.374493
					CHANNELS 3 Xrotation Yrotation Zrotation
					JOINT Neck
					{
						OFFSET 0.000000 -0.000001 12.152554
						CHANNELS 3 Xrotation Yrotation Zrotation
						JOINT Head
						{
							OFFSET 0.000000 -0.040100 7.802319
							CHANNELS 3 Xrotation Yrotation Zrotation
							End Site
							{
								OFFSET 0.000000 -0.020946 14.853096
							}
						}
					}
					JOINT RightCollar
					{
						OFFSET -2.894404 0.000000 6.791374
						CHANNELS 3 Xrotation Yrotation Zrotation
						JOINT RightShoulder
						{
							OFFSET -13.574684 0.000000 0.000000
							CHANNELS 3 Xrotation Yrotation Zrotation
							JOINT RightElbow
							{
								OFFSET -23.923903 0.000000 0.000000
								CHANNELS 3 Xrotation Yrotation Zrotation
								JOINT RightWrist
								{
									OFFSET -19.846718 -0.012765 0.000000
									CHANNELS 3 Xrotation Yrotation Zrotation
									End Site
									{
										OFFSET -14.973145 0.000000 0.000000
									}
								}
							}
						}
					}
					JOINT LeftCollar
					{
						OFFSET 2.894404 0.000000 6.791374
						CHANNELS 3 Xrotation Yrotation Zrotation
						JOINT LeftShoulder
						{
							OFFSET 13.574684 0.000000 0.000000
							CHANNELS 3 Xrotation Yrotation Zrotation
							JOINT LeftElbow
							{
								OFFSET 23.923903 0.000000 0.000000
								CHANNELS 3 Xrotation Yrotation Zrotation
								JOINT LeftWrist
								{
									OFFSET 19.846718 -0.012765 0.000000
									CHANNELS 3 Xrotation Yrotation Zrotation
									End Site
									{
										OFFSET 14.973145 0.000000 0.000000
									}
								}
							}
						}
					}
				}
			}
		}
	}
	JOINT RightHip
	{
		OFFSET -9.469263 -0.004642 0.045487
		CHANNELS 3 Xrotation Yrotation Zrotation
		JOINT RightKnee
		{
			OFFSET 0.000000 -0.002666 -40.478676
			CHANNELS 3 Xrotation Yrotation Zrotation
			JOINT RightAnkle
			{
				OFFSET 0.000000 -0.049110 -35.224068
				CHANNELS 3 Xrotation Yrotation Zrotation
				JOINT RightToe
				{
					OFFSET 0.000000 -12.539530 -6.151390
					CHANNELS 3 Xrotation Yrotation Zrotation
					End Site
					{
						OFFSET 0.000000 -5.044995 -1.291870
					}
				}
			}
		}
	}
	JOINT LeftHip
	{
		OFFSET 9.469263 -0.004642 0.045487
		CHANNELS 3 Xrotation Yrotation Zrotation
		JOINT LeftKnee
		{
			OFFSET 0.000000 -0.002666 -40.478676
			CHANNELS 3 Xrotation Yrotation Zrotation
			JOINT LeftAnkle
			{
				OFFSET 0.000000 -0.049110 -35.224068
				CHANNELS 3 Xrotation Yrotation Zrotation
				JOINT LeftToe
				{
					OFFSET 0.000000 -12.539530 -6.151390
					CHANNELS 3 Xrotation Yrotation Zrotation
					End Site
					{
						OFFSET 0.000000 -5.044995 -1.291870
					}
				}
			}
		}
	}
}
MOTION
Frames: 5
Frame Time: 0.016667
-5.461663 -3.338300 83.296997 2.232051 4.547752 -96.496428 5.025493 2.088055 0.690896 2.497698 0.979065 -0.033949 2.497699 0.979066 -0.033949 1.873172 0.734451 -0.021459 17.391204 -8.886739 -16.228792 -4.428904 -10.685192 -32.699312 -15.572671 -3.650082 -5.793216 -26.919162 -28.464754 -2.085260 -39.034709 8.121098 -2.271223 -56.741052 62.336944 56.095295 0.066299 5.826548 -10.986646 19.044174 29.747257 -9.797962 72.955764 18.751140 -103.619960 12.684816 36.160958 14.192695 3.616566 -0.559486 -1.174937 7.974290 -3.495136 -3.291246 -6.141822 1.443248 -5.765585 -0.435102 -0.314140 0.231095 1.933676 -0.351327 -4.514564 5.884447 -0.690653 -0.154869 -2.821577 -0.012816 -1.493885 0.303971 0.473484 -0.072417 
-5.312575 -3.311746 83.289330 2.231712 4.603288 -95.959117 4.933914 2.221885 0.848834 2.497732 1.051249 -0.002088 2.497731 1.051250 -0.002087 1.873247 0.788461 0.002731 17.489657 -9.016576 -16.431903 -4.268024 -10.876795 -33.108983 -15.138045 -3.496147 -5.851610 -27.452209 -29.800539 -0.683697 -40.544969 7.602900 -1.586737 -59.628952 61.852404 58.492552 0.833886 5.880507 -11.099085 18.552563 29.917233 -10.314791 73.065996 19.399667 -103.493786 13.047103 37.080984 13.956131 3.487058 -0.583137 -1.181149 8.226182 -3.647552 -3.602174 -6.183821 1.589111 -5.966580 -0.454719 -0.323498 0.259664 1.744864 -0.371875 -4.562160 6.034803 -0.752544 -0.451093 -2.784966 -0.018139 -1.629172 0.302592 0.430849 -0.076670 
-5.175567 -3.277683 83.276016 2.241182 4.656243 -95.453465 4.841543 2.356163 0.972442 2.482011 1.111219 0.024785 2.482012 1.111220 0.024786 1.861495 0.833329 0.023102 17.604534 -9.116005 -16.607178 -4.070983 -11.027377 -33.454844 -15.040065 -3.400219 -5.779488 -27.174770 -31.130039 0.834836 -42.266139 7.043273 -0.826172 -61.712993 61.405504 60.197326 1.306678 6.125481 -11.206028 18.177567 29.841199 -10.594977 73.090319 19.752171 -103.004778 14.873816 37.914739 12.431093 3.359922 -0.614794 -1.177101 8.466340 -3.806386 -3.924356 -6.227663 1.737295 -6.098973 -0.465050 -0.330638 0.280648 1.585776 -0.413829 -4.542968 6.150496 -0.805813 -0.710956 -2.780184 0.018721 -1.814691 0.336426 0.365051 -0.078504 
-5.037914 -3.237498 83.254784 2.295276 4.627797 -95.043264 4.703222 2.481853 1.140885 2.459876 1.155311 0.057782 2.459876 1.155311 0.057780 1.844951 0.866268 0.047985 17.712595 -9.205749 -16.762222 -3.885619 -11.165848 -33.760751 -14.623573 -3.551234 -5.339878 -27.312058 -32.160622 2.053606 -44.279608 6.168164 0.122641 -63.820495 60.813026 61.993146 1.589877 6.367959 -11.227635 17.945267 29.691614 -10.860456 72.917597 19.831435 -102.240241 16.520269 38.312560 10.736423 3.154423 -0.696737 -1.094297 8.699861 -3.960851 -4.231415 -6.290592 1.876577 -6.248707 -0.448561 -0.327633 0.291174 1.380188 -0.521864 -4.450966 6.236428 -0.838157 -0.939526 -2.844710 0.081051 -2.015634 0.438366 0.291566 -0.081307 
-4.917375 -3.193631 83.239624 2.342617 4.627588 -94.669243 4.587748 2.593441 1.288610 2.437915 1.194298 0.091632 2.437916 1.194299 0.091631 1.828550 0.895376 0.073486 17.811178 -9.276999 -16.901962 -3.713739 -11.274139 -34.032442 -13.559867 -3.479244 -5.099493 -28.299325 -33.569943 3.171336 -46.106840 4.914821 1.201027 -66.130213 59.991430 63.844244 1.789747 6.544487 -11.097823 17.826532 29.590917 -11.179697 72.800104 19.923580 -101.441375 17.008450 38.220994 9.840223 2.987830 -0.768418 -1.022336 8.912500 -4.101116 -4.479517 -6.332413 1.996678 -6.417763 -0.441725 -0.315396 0.295556 1.232786 -0.631097 -4.394996 6.284822 -0.838721 -1.159734 -2.868119 0.143401 -2.142999 0.506815 0.218616 -0.084952 
